<?xml version="1.0" encoding="utf-8"?>
<!-- Generator: Adobe Illustrator 25.4.1, SVG Export Plug-In . SVG Version: 6.00 Build 0)  -->
<svg version="1.1" id="L1" xmlns="http://www.w3.org/2000/svg" xmlns:xlink="http://www.w3.org/1999/xlink" x="0px" y="0px"
	 viewBox="0 0 900 900" style="enable-background:new 0 0 900 900;" xml:space="preserve">
<style type="text/css">
	.st0{opacity:0.5;fill:#195151;}
</style>
<path class="st0" d="M450,9.4L68.5,229.7v440.6L450,890.6l381.5-220.3V229.7L450,9.4z M450,820.1L129.5,635.1V264.9L450,79.9
	l320.5,185.1v128.2c-13.4-10.2-40.6-28-58.9-19.9c0,0,21.7,31.2,0,46.1c0,0-134.1,38.3-198,86c15.8-20.7,51.1-41.4,51.1-41.4
	s-206-196.8-384.4-209.5c0,0,88.5,83.8,114.2,113.7c2,2.3-0.4,4.9-2,7.8c0,0,22,2.7,36.6,10.1l-14.2,10.5
	c0,0,70.6,101.8,121.6,156.4c0,0,5.3,100.4-49.8,220c0,0,100.4-27.9,185.2-216.7c13.4-5.1,55.6-6.7,100.5-6.8c-0.6,0.1-1,0.2-1,0.2
	c15.3,1.9-2.6,5.5-2.6,5.5c-8.6,0-2.3,4.6-2.3,4.6s17.6,13.6,26.2,24.7c0,0,3.7,4.6,4.4,10.6c0,0,33-9.9,41.5-42.6
	c0.2-0.8,4.4-1.4,5.6-2.3c9.9,0.2,18.7,0.4,26.4,0.7v84.1L450,820.1z"/>
</svg>
