<?xml version="1.0" encoding="utf-8"?>
<!-- Generator: Adobe Illustrator 25.4.1, SVG Export Plug-In . SVG Version: 6.00 Build 0)  -->
<svg version="1.1" xmlns="http://www.w3.org/2000/svg" xmlns:xlink="http://www.w3.org/1999/xlink" x="0px" y="0px"
	 viewBox="0 0 262.8 210.6" style="enable-background:new 0 0 262.8 210.6;" xml:space="preserve">
<style type="text/css">
	.st0{display:none;}
	.st1{display:inline;}
	.st2{display:inline;fill:#00F083;}
	.st3{fill:#E2E2E2;}
	.st4{display:inline;fill:#E2E2E2;}
	.st5{display:inline;fill:#FF0F85;}
	.st6{display:inline;fill:#3CAABC;}
	.st7{fill:#106775;}
	.st8{fill:#FF0333;}
</style>
<g id="Layer_1" class="st0">
	
		<image style="display:inline;overflow:visible;" width="559" height="488" xlink:href="../../../../Library/CloudStorage/Dropbox/☪︎/X-files/Collects/SPACE-INVADERS-Collect/Screen Shot 2023-11-04 at 12.08.18 AM.png"  transform="matrix(1 0 0 1 -145.7995 -139.5996)">
	</image>
</g>
<g id="Layer_3" class="st0">
	<g id="Qe3DW7_00000183214369266711525220000003305312896355969974_" class="st1">
		
			<image style="overflow:visible;" width="420" height="188" id="Qe3DW7" xlink:href="DE9BC39BDBA16A25.jpg"  transform="matrix(2.5114 0 0 2.5114 -300.8151 -243.0638)">
		</image>
	</g>
</g>
<g id="Layer_6" class="st0">
	<g id="rFh9xn_00000094617110018149276820000009592871284122617497_" class="st1">
		
			<image style="overflow:visible;" width="820" height="511" id="rFh9xn" xlink:href="DE9BC39BDBA16A27.jpg"  transform="matrix(0.3117 0 0 0.3117 3.9843 2.1022)">
		</image>
	</g>
</g>
<g id="Layer_2" class="st0">
	<path class="st2" d="M224.7,105.5V85.7h-19v-22h-21.6v-21h21.6v-22h-22v21.6h-21.6v21.4h-61.4V42.3h-22V20.7H57.1v22h21.6v21H57.1
		v22h-19v19.8H16.9v22v40.8h21.2v-40.8h19v40.8h21.6v21.6h42.7v-22H78.7v-20.6h103.8v20.6H141v22h42.2v-21.6h22.5v-21v-19.8h19v40.8
		h21.2v-40.8v-22H224.7z M100.9,105.3v0.4H79.3v-22h21.6V105.3z M183.1,105.3v0.4h-21.6v-22h21.6V105.3z"/>
</g>
<g id="Layer_2_copy" class="st0">
	<g class="st1">
		<polygon class="st3" points="34.8,190 56.4,190 56.4,189.6 56.4,168 34.8,168 		"/>
		<polygon class="st3" points="205.2,189.4 226.8,189.4 226.8,189 226.8,167.4 205.2,167.4 		"/>
	</g>
	<path class="st4" d="M224.7,42.6V86h-19V64h-21.6V43h21.6V21h-22v21.6h-21.6V64h-61.4V42.6h-22V21H57.1v22h21.6v21H57.1v22h-19
		V42.6H16.9v85.2h21.2v19.8h19v20h21.6h1.2v-21.4h103.2v21.4h22.6v-20h19v-19.8h21.2V42.6H224.7z M100.9,105.6v0.4H79.3V84h21.6
		V105.6z M183.1,105.6v0.4h-21.6V84h21.6V105.6z"/>
</g>
<g id="Layer_5" class="st0">
	<rect x="125.9" y="196.2" class="st5" width="11.1" height="11.1"/>
	<path class="st6" d="M246.2,143.6v-19h-20.8v-20.4v-21h-21v21h-43.5V61.8H142V11.2h-21.6v50.6h-18.9v42.4H58v-21H37v21v20.4H16.6
		V144l0,0v19h84.9v20.4h19.6v12.8h21v-12.8h18.8V163h85.3V143.6L246.2,143.6z M108.6,122.4c0,0.7-0.3,1-1,1H86.4
		c-4.9,0-6.3,1.5-6.3,6.5v6.7c0,5,1.4,6.5,6.3,6.5h21.1c0.7,0,1,0.3,1,1v4.7c0,0.7-0.3,1-1,1H86.2c-9.6,0-13.3-3.4-13.3-12.5v-8.2
		c0-9.1,3.7-12.5,13.3-12.5h21.4c0.7,0,1,0.3,1,1V122.4z M121.1,83.2h21v21h-21V83.2z M149,127.7c0,5.4-3,8.5-8.3,8.5h-17.9
		c-1.7,0-2.5,0.9-2.5,2.7v3.5c0,0.7,0.3,1,0.9,1h26.6c0.7,0,1,0.3,1,1v4.5c0,0.7-0.4,1-1,1h-30.3c-3.1,0-4.4-1.2-4.4-4v-7.3
		c0-5.4,2.9-8.5,8.3-8.5h17.9c1.7,0,2.5-0.9,2.5-2.7v-1.5c0-1.8-0.9-2.7-2.5-2.7h-23.9c-0.7,0-1.1-0.3-1.1-1v-4.5c0-0.7,0.4-1,1.1-1
		h25.1c5.5,0,8.4,2.8,8.4,7.7V127.7z M189.9,142.2c0,4.9-2.9,7.7-8.4,7.7h-26.3c-0.7,0-1-0.3-1-1v-4.5c0-0.7,0.3-1,1-1h25.2
		c1.7,0,2.5-0.9,2.5-2.7v-1.9c0-1.8-0.8-2.7-2.5-2.7h-21.9c-3.1,0-4.4-1.2-4.4-4v-11.4c0-2.8,1.2-4,4.4-4h29.1c0.7,0,1,0.3,1,1v4.5
		c0,0.7-0.4,1-1,1h-25.5c-0.7,0-1,0.3-1,1v4.8c0,0.7,0.3,1,1,1h19.5c5.4,0,8.3,2.8,8.3,8.1V142.2z"/>
</g>
<g id="Layer_7">
	<rect x="89.2" y="49.2" width="87.2" height="30"/>
	<g>
		<path class="st7" d="M91.6,98.6V115h18.4V98.6h12.2V115h18.4V98.6H153V115h18.4V98.6V83.1h15.9v-6.7l0,0V41.9l0,0v-7.1h-16V19.4
			H91.5v15.4H75.8v16.2l0,0v16l0,0v16.2h15.8V98.6z M171,50.9v20h-31.6v-20H171z M92.1,50.9h31.2v20H92.1V50.9z"/>
		<polygon class="st7" points="208.9,109.1 208.9,125.6 171.2,125.6 171.2,141.3 92.1,141.3 92.1,125.6 54.4,125.6 54.4,109.1 
			31.6,109.1 31.6,125.6 31.6,127.5 31.6,141.8 91.6,141.8 91.6,157.3 31.6,157.3 31.6,171.6 31.6,173.5 31.6,190 54.4,190 
			54.4,173.5 92.1,173.5 92.1,157.4 171.2,157.4 171.2,173.5 208.9,173.5 208.9,190 231.7,190 231.7,173.5 231.7,171.6 231.7,157.3 
			171.3,157.3 171.3,141.8 231.7,141.8 231.7,127.5 231.7,125.6 231.7,109.1 		"/>
	</g>
</g>
<g id="Layer_7_copy">
	<rect x="89.2" y="49.2" class="st8" width="87.2" height="23"/>
	<g>
		<path class="st7" d="M91.6,98.6V115h18.4V98.6h12.2V115h18.4V98.6H153V115h18.4V98.6V83.1h15.9v-6.7l0,0V41.9l0,0v-7.1h-16V19.4
			H91.5v15.4H75.8v16.2l0,0v16l0,0v16.2h15.8V98.6z M171,46.9v24h-31.6v-24H171z M92.1,46.9h31.2v24H92.1V46.9z"/>
		<polygon class="st7" points="208.9,83.1 208.9,125.6 171.2,125.6 171.2,141.3 92.1,141.3 92.1,125.6 54.4,125.6 54.4,83.1 
			31.6,83.1 31.6,125.6 31.6,127.5 31.6,141.8 91.6,141.8 91.6,157.3 31.6,157.3 31.6,171.6 31.6,173.5 31.6,200 54.4,200 
			54.4,173.5 92.1,173.5 92.1,157.4 171.2,157.4 171.2,173.5 208.9,173.5 208.9,200 231.7,200 231.7,173.5 231.7,171.6 231.7,157.3 
			171.3,157.3 171.3,141.8 231.7,141.8 231.7,127.5 231.7,125.6 231.7,83.1 		"/>
	</g>
</g>
</svg>
