<?xml version="1.0" encoding="utf-8"?>
<!-- Generator: Adobe Illustrator 25.4.1, SVG Export Plug-In . SVG Version: 6.00 Build 0)  -->
<svg version="1.1" xmlns="http://www.w3.org/2000/svg" xmlns:xlink="http://www.w3.org/1999/xlink" x="0px" y="0px"
	 viewBox="0 0 348 612" style="enable-background:new 0 0 348 612;" xml:space="preserve">
<style type="text/css">
	.st0{fill:#434951;}
	.st1{fill:none;}
	.st2{fill:#6A7077;}
	.st3{fill:#53E01E;}
	.st4{fill:#D4D4D4;}
	.st5{fill:#FFFFFF;}
	.st6{fill:#EDEDED;}
	.st7{fill:#4CAF1E;}
	.st8{display:none;}
	.st9{display:inline;}
	.st10{fill:#434951;stroke:#000000;stroke-width:6;stroke-linecap:square;stroke-miterlimit:10;}
	.st11{fill:#434951;stroke:#000000;stroke-width:8;stroke-linecap:square;stroke-miterlimit:10;}
</style>
<g id="Layer_1">
	<g>
		<g>
			<rect x="147.3" y="432.2" class="st0" width="55.9" height="40.8"/>
			<path d="M206.1,476h-61.9v-46.8h61.9V476z M150.3,470h49.9v-34.8h-49.9V470z"/>
		</g>
		<g>
			<polygon class="st0" points="117.3,429.6 99.7,429.6 99.7,459.2 117.3,459.2 250.7,459.2 250.7,429.9 231.3,429.9 231.3,367.5 
				117.8,367.5 			"/>
			<path d="M254.7,463.2H95.7v-37.6h17.6l0.4-62.1h121.5v62.3h19.4V463.2z M103.7,455.2h142.9v-21.3h-19.4v-62.3H121.7l-0.4,62.1
				h-17.6V455.2z"/>
		</g>
		<rect x="105.2" y="301" class="st0" width="140" height="130"/>
		<line class="st1" x1="168.1" y1="410.9" x2="182.3" y2="410.9"/>
		<g>
			<g>
				<polyline class="st0" points="89.4,262.5 70.5,262.5 70.5,243.4 51.7,243.4 51.7,262.5 70.5,262.5 70.5,280.7 89.2,280.7 
					89.2,287.3 89.2,297.5 89.2,305.2 138.7,305.2 138.7,318.5 214.8,318.5 214.8,304.3 262.8,304.3 262.8,297.5 262.8,286.5 
					262.8,280.7 281.7,280.7 281.7,262.5 300.4,262.5 300.4,244.7 281.7,244.7 281.7,262.5 263.1,262.5 263.1,171.2 249.9,171.2 
					249.9,85.1 230,85.1 230,65.2 205.6,65.2 205.6,46.2 145,46.2 145,65.2 119.7,65.2 119.7,85.1 102.9,85.1 102.9,171.2 
					89.4,171.2 89.4,262.5 				"/>
				<path d="M217.8,321.5h-82v-13.3H86.2v-24.5H67.5v-18.3H48.7v-25.1h24.7v19.1h12.9v-91.3h13.5V82.1h16.8V62.2H142V43.2h66.7v19.1
					H233v19.9h19.9v86.1h13.2v91.3h12.6v-17.8h24.7v23.8h-18.7v18.3h-18.8v23.6h-48.1V321.5z M141.7,315.5h70v-14.2h48.1v-23.6h18.8
					v-12.3h-18.6v-91.3h-13.2V88.1H227V68.2h-24.4V49.2H148v19.1h-25.3v19.9h-16.8v86.1H92.4v91.3H73.5v12.3h18.7v24.5h49.6V315.5z
					 M284.7,259.5h12.7v-11.8h-12.7V259.5z M54.7,259.5h12.7v-13.1H54.7V259.5z"/>
			</g>
			<g>
				<rect x="304.4" y="226" class="st0" width="18.7" height="17.8"/>
				<path d="M326.1,246.8h-24.7V223h24.7V246.8z M307.4,240.8h12.7V229h-12.7V240.8z"/>
			</g>
			<g>
				<rect x="27.3" y="226" class="st0" width="18.7" height="17.8"/>
				<path d="M49,246.8H24.3V223H49V246.8z M30.3,240.8H43V229H30.3V240.8z"/>
			</g>
			<polygon class="st2" points="233.8,158.3 222.3,158.3 222.3,118.2 212.2,118.2 212.2,166.9 217.9,166.9 217.9,215.9 192,215.9 
				192,262.5 233.8,262.5 233.8,241.8 233.8,241.8 			"/>
			<polygon class="st2" points="146.4,101 124.8,101 124,101 113.3,101 113.3,189.5 124.8,189.5 124.8,158.6 146.4,158.6 			"/>
			<g>
				<g>
					<polygon points="238.9,368.4 248.4,368.4 248.9,431 239.4,431 					"/>
					<rect x="243.1" y="305.7" width="9.5" height="62.7"/>
				</g>
				<g>
					<rect x="99.5" y="305.7" width="9.5" height="62.7"/>
					<rect x="103.7" y="368.4" width="9.5" height="62.7"/>
				</g>
			</g>
			<rect x="158.4" y="299.7" class="st2" width="49.9" height="14"/>
			<rect x="208.3" y="285.8" class="st2" width="49.9" height="14"/>
		</g>
		<g>
			<polyline points="227.2,452.2 123.2,452.2 123.2,353 227.2,353 			"/>
			<g>
				<rect x="133.1" y="380.8" class="st3" width="14.2" height="31.6"/>
				<rect x="158.4" y="409.8" class="st4" width="12.6" height="14.2"/>
				<rect x="187.8" y="409.8" class="st5" width="12.6" height="14.2"/>
				<rect x="129" y="424" class="st5" width="87.2" height="15.4"/>
				<rect x="214.3" y="413.6" class="st3" width="16.5" height="46.2"/>
				<rect x="214.3" y="465.3" class="st3" width="16.5" height="21.1"/>
				<rect x="143.8" y="419.8" class="st3" width="14.7" height="45.6"/>
				<rect x="119.6" y="423.8" class="st3" width="14" height="32.2"/>
			</g>
			<g>
				<rect x="112.2" y="327.2" class="st4" width="14.2" height="14.2"/>
				<g>
					<rect x="126.3" y="341.5" class="st6" width="42.4" height="15"/>
					<rect x="140.9" y="356.5" class="st6" width="14.2" height="14.2"/>
				</g>
				<g>
					<g>
						<g>
							<rect x="214.1" y="341.5" class="st4" width="13.8" height="14.2"/>
							<rect x="214.1" y="355.7" class="st3" width="13.8" height="19.8"/>
						</g>
						<rect x="227.5" y="327.1" class="st5" width="10.7" height="14.2"/>
					</g>
					<g>
						<g>
							<rect x="199.9" y="370.6" class="st3" width="14.2" height="15"/>
							<rect x="199.9" y="356.5" class="st5" width="14.2" height="14.2"/>
						</g>
						<rect x="168.7" y="341.5" class="st5" width="45.4" height="15"/>
					</g>
				</g>
				<rect x="160.3" y="356.6" class="st7" width="14" height="20.2"/>
			</g>
		</g>
	</g>
</g>
<g id="Layer_2" class="st8">
	<g class="st9">
		<rect x="144.7" y="514.3" width="59.1" height="34"/>
		<rect x="147.3" y="439.5" class="st10" width="55.9" height="40.8"/>
		<polygon class="st11" points="117.3,437.9 89.7,437.9 89.7,467.5 117.3,467.5 260.7,467.5 260.7,438.2 231.3,438.2 231.3,346.8 
			117.8,346.8 		"/>
		<rect x="105.2" y="280.3" class="st0" width="140" height="164"/>
		<line class="st1" x1="168.1" y1="419.1" x2="182.3" y2="419.1"/>
		<polyline class="st10" points="89.4,241.8 70.5,241.8 70.5,222.7 51.7,222.7 51.7,241.8 70.5,241.8 70.5,260 89.2,260 89.2,266.6 
			89.2,271.8 89.2,279.5 138.7,279.5 138.7,292.8 214.8,292.8 214.8,278.6 262.8,278.6 262.8,271.8 262.8,265.8 262.8,260 
			281.7,260 281.7,241.8 300.4,241.8 300.4,224 281.7,224 281.7,241.8 263.1,241.8 263.1,150.5 249.9,150.5 249.9,69.4 230,69.4 
			230,49.5 205.6,49.5 205.6,30.5 145,30.5 145,49.5 119.7,49.5 119.7,69.4 102.9,69.4 102.9,150.5 89.4,150.5 89.4,241.8 		"/>
		<rect x="304.4" y="218.3" class="st10" width="18.7" height="17.8"/>
		<rect x="27.3" y="218.3" class="st10" width="18.7" height="17.8"/>
		<polygon class="st2" points="233.8,137.5 222.3,137.5 222.3,102.4 212.2,102.4 212.2,146.2 217.9,146.2 217.9,195.2 192,195.2 
			192,241.8 233.8,241.8 233.8,221.1 233.8,221.1 		"/>
		<polygon class="st2" points="146.4,85.3 124.8,85.3 124,85.3 113.3,85.3 113.3,168.8 124.8,168.8 124.8,137.8 146.4,137.8 		"/>
		<g>
			<g>
				<polygon points="238.9,347.7 248.4,347.7 248.9,434.2 239.4,434.2 				"/>
				<rect x="243.1" y="278" width="9.5" height="69.7"/>
			</g>
			<g>
				<rect x="99.5" y="278" width="9.5" height="69.7"/>
				<rect x="103.7" y="347.7" width="9.5" height="86.7"/>
			</g>
		</g>
		<rect x="158.4" y="265" class="st2" width="49.9" height="14"/>
		<rect x="208.3" y="256.1" class="st2" width="49.9" height="14"/>
		<polyline points="227.2,460.5 123.2,460.5 123.2,332.2 227.2,332.2 		"/>
		<rect x="130.4" y="414.1" class="st6" width="12.6" height="23.2"/>
		<rect x="147.4" y="418.1" class="st5" width="14.6" height="19.2"/>
		<rect x="189.8" y="418.1" class="st5" width="12.6" height="19.2"/>
		<rect x="207.8" y="414.1" class="st6" width="12.6" height="23.2"/>
		<rect x="125" y="437.3" class="st5" width="102.2" height="23.2"/>
		<rect x="112.2" y="305" class="st6" width="14.2" height="15.7"/>
		<rect x="119.3" y="320" class="st6" width="49.4" height="15"/>
		<rect x="140.9" y="334.8" class="st6" width="14.2" height="18.2"/>
		<rect x="214.1" y="320" class="st5" width="13.8" height="14.2"/>
		<rect x="199.9" y="334.8" class="st5" width="14.2" height="18.2"/>
		<g>
			<rect x="168.7" y="320" class="st5" width="45.4" height="15"/>
			<rect x="126.4" y="305" class="st5" width="111.8" height="15"/>
		</g>
		<rect x="125" y="437.3" class="st3" width="16.5" height="46.7"/>
		<rect x="139.1" y="371" class="st3" width="16.5" height="35.5"/>
		<rect x="212.5" y="460.5" class="st3" width="14.7" height="46.1"/>
		<rect x="119.3" y="342.2" class="st3" width="14" height="32.6"/>
		<rect x="218.9" y="350.6" class="st3" width="13.8" height="46"/>
		<rect x="166.8" y="367.1" class="st10" width="15.6" height="148.8"/>
		<rect x="140.6" y="499.8" class="st10" width="68" height="14"/>
		<rect x="144.6" y="546.7" class="st10" width="60" height="14"/>
		<rect x="147.7" y="539.3" class="st5" width="10.3" height="10.3"/>
		<rect x="160.9" y="538.3" class="st5" width="10.3" height="11.3"/>
		<rect x="176.9" y="539.3" class="st5" width="10.3" height="10.3"/>
		<rect x="190.5" y="539.3" class="st5" width="10.3" height="10.3"/>
		
			<rect x="190.5" y="513.8" transform="matrix(-1 -1.224647e-16 1.224647e-16 -1 391.3657 1041.9426)" class="st5" width="10.3" height="14.3"/>
		
			<rect x="174.4" y="513.8" transform="matrix(-1 -1.224647e-16 1.224647e-16 -1 359.0266 1037.9426)" class="st5" width="10.3" height="10.3"/>
		
			<rect x="160.4" y="513.8" transform="matrix(-1 -1.224647e-16 1.224647e-16 -1 331.0266 1035.9426)" class="st5" width="10.3" height="8.3"/>
		
			<rect x="147.7" y="513.8" transform="matrix(-1 -1.224647e-16 1.224647e-16 -1 305.8002 1040.9426)" class="st5" width="10.3" height="13.3"/>
		<rect x="224" y="514.6" class="st3" width="14.2" height="31.9"/>
		<rect x="183.9" y="371.2" class="st3" width="14.2" height="15.2"/>
		<rect x="103.9" y="492.2" class="st3" width="14.2" height="15.2"/>
		<rect x="224.2" y="319.4" class="st7" width="14" height="20.5"/>
	</g>
</g>
</svg>
