<?xml version="1.0" encoding="utf-8"?>
<!-- Generator: Adobe Illustrator 25.4.1, SVG Export Plug-In . SVG Version: 6.00 Build 0)  -->
<svg version="1.1" xmlns="http://www.w3.org/2000/svg" xmlns:xlink="http://www.w3.org/1999/xlink" x="0px" y="0px"
	 viewBox="0 0 262.8 210.6" style="enable-background:new 0 0 262.8 210.6;" xml:space="preserve">
<style type="text/css">
	.st0{display:none;}
	.st1{display:inline;}
	.st2{fill:#00F083;}
	.st3{fill:#00BB8F;}
</style>
<g id="Layer_1" class="st0">
	
		<image style="display:inline;overflow:visible;" width="559" height="488" xlink:href="../../../../Library/CloudStorage/Dropbox/☪︎/X-files/Collects/SPACE-INVADERS-Collect/Screen Shot 2023-11-04 at 12.08.18 AM.png"  transform="matrix(1 0 0 1 -145.7995 -139.5996)">
	</image>
</g>
<g id="Layer_3" class="st0">
	<g id="Qe3DW7_00000183214369266711525220000003305312896355969974_" class="st1">
		
			<image style="overflow:visible;" width="420" height="188" id="Qe3DW7" xlink:href="DE828275AD766D44.jpg"  transform="matrix(2.5114 0 0 2.5114 -300.8151 -243.0638)">
		</image>
	</g>
</g>
<g id="Layer_2">
	<path class="st2" d="M224.7,105.5V85.7h-19v-22h-21.6v-21h21.6v-22h-22v21.6h-21.6v21.4h-61.4V42.3h-22V20.7H57.1v22h21.6v21H57.1
		v22h-19v19.8H16.9v22v40.8h21.2v-40.8h19v40.8h21.6v21.6h42.7v-22H78.7v-20.6h103.8v20.6H141v22h42.2v-21.6h22.5v-21v-19.8h19v40.8
		h21.2v-40.8v-22H224.7z M100.9,105.3v0.4H79.3v-22h21.6V105.3z M183.1,105.3v0.4h-21.6v-22h21.6V105.3z"/>
</g>
<g id="Layer_2_copy">
	<g>
		<polygon class="st3" points="34.8,190 56.4,190 56.4,189.6 56.4,168 34.8,168 		"/>
		<polygon class="st3" points="205.2,189.4 226.8,189.4 226.8,189 226.8,167.4 205.2,167.4 		"/>
	</g>
	<path class="st3" d="M224.7,42.6V86h-19V64h-21.6V43h21.6V21h-22v21.6h-21.6V64h-61.4V42.6h-22V21H57.1v22h21.6v21H57.1v22h-19
		V42.6H16.9v85.2h21.2v19.8h19v20h21.6h1.2v-21.4h103.2v21.4h22.6v-20h19v-19.8h21.2V42.6H224.7z M100.9,105.6v0.4H79.3V84h21.6
		V105.6z M183.1,105.6v0.4h-21.6V84h21.6V105.6z"/>
</g>
</svg>
