<?xml version="1.0" encoding="utf-8"?>
<!-- Generator: Adobe Illustrator 25.4.1, SVG Export Plug-In . SVG Version: 6.00 Build 0)  -->
<svg version="1.1" id="Layer_1" xmlns="http://www.w3.org/2000/svg" xmlns:xlink="http://www.w3.org/1999/xlink" x="0px" y="0px"
	 viewBox="0 0 470.3 574.2" style="enable-background:new 0 0 470.3 574.2;" xml:space="preserve">
<style type="text/css">
	.st0{display:none;}
	.st1{display:inline;}
	.st2{fill:#00F083;}
	.st3{fill:#E2E2E2;}
	.st4{fill:#FF0F85;}
	.st5{fill:#3CAABC;}
	.st6{fill:#FF0333;}
	.st7{fill:#106775;}
	.st8{fill:#434951;stroke:#000000;stroke-width:8;stroke-linecap:square;stroke-miterlimit:10;}
	.st9{fill:#6A7077;}
	.st10{fill:#434951;stroke:#000000;stroke-width:8;stroke-miterlimit:10;}
	.st11{fill:#3B3E42;}
	.st12{fill:#6A7077;stroke:#000000;stroke-width:8;stroke-miterlimit:10;}
	.st13{fill:#434951;}
	.st14{fill:#434951;stroke:#000000;stroke-width:4;stroke-miterlimit:10;}
	.st15{fill:#D4D4D4;}
	.st16{fill:#EDEDED;}
	.st17{fill:#53E01E;}
	.st18{fill:#FFFFFF;}
	.st19{fill:#4CAF1E;}
	.st20{fill:#64B741;}
</style>
<g id="Layer_1_00000035499522953232260470000016488940419807186867_" class="st0">
	<g id="Layer_1_00000172412458988439224630000016556046206269737915_" class="st1">
		
			<image style="overflow:visible;enable-background:new    ;" width="559" height="488" xlink:href="../../../../Library/CloudStorage/Dropbox/☪︎/X-files/Collects/SPACE-INVADERS-Collect/Screen Shot 2023-11-04 at 12.08.18 AM.png"  transform="matrix(1 0 0 1 -133.1995 -139.5996)">
		</image>
	</g>
	<g id="Layer_3" class="st1">
		<g id="Qe3DW7_00000183214369266711525220000003305312896355969974_">
			
				<image style="overflow:visible;enable-background:new    ;" width="425" height="191" id="Qe3DW7" xlink:href="DE93588F219315D2.jpg"  transform="matrix(2.4802 0 0 2.4802 -287.8622 -243.8507)">
			</image>
		</g>
	</g>
	<g id="Layer_6" class="st1">
		<g id="rFh9xn_00000094617110018149276820000009592871284122617497_">
			
				<image style="overflow:visible;enable-background:new    ;" width="825" height="513" id="rFh9xn" xlink:href="DE93588F219315D3.jpg"  transform="matrix(0.31 0 0 0.31 16.5067 2.2268)">
			</image>
		</g>
	</g>
	<g id="Layer_2_00000015316930924456574900000005252717667744316052_" class="st1">
		<path class="st2" d="M237.3,105.5V85.7h-19v-22h-21.6v-21h21.6v-22h-22v21.6h-21.6v21.4h-61.4V42.3h-22V20.7H69.7v22h21.6v21H69.7
			v22h-19v19.8H29.5v22v40.8h21.2v-40.8h19v40.8h21.6v21.6H134v-22H91.3v-20.6h103.8v20.6h-41.5v22h42.2v-21.6h22.5v-21v-19.8h19
			v40.8h21.2v-40.8v-22H237.3z M113.5,105.3v0.4H91.9v-22h21.6V105.3z M195.7,105.3v0.4h-21.6v-22h21.6V105.3z"/>
	</g>
	<g id="Layer_2_copy" class="st1">
		<g>
			<polygon class="st3" points="47.4,190 69,190 69,189.6 69,168 47.4,168 			"/>
			<polygon class="st3" points="217.8,189.4 239.4,189.4 239.4,189 239.4,167.4 217.8,167.4 			"/>
		</g>
		<path class="st3" d="M237.3,42.6V86h-19V64h-21.6V43h21.6V21h-22v21.6h-21.6V64h-61.4V42.6h-22V21H69.7v22h21.6v21H69.7v22h-19
			V42.6H29.5v85.2h21.2v19.8h19v20h21.6h1.2v-21.4h103.2v21.4h22.6v-20h19v-19.8h21.2V42.6H237.3z M113.5,105.6v0.4H91.9V84h21.6
			V105.6z M195.7,105.6v0.4h-21.6V84h21.6V105.6z"/>
	</g>
	<g id="Layer_5" class="st1">
		<rect x="138.5" y="196.2" class="st4" width="11.1" height="11.1"/>
		<path class="st5" d="M258.8,143.6v-19H238v-20.4v-21h-21v21h-43.5V61.8h-18.9V11.2H133v50.6h-18.9v42.4H70.6v-21h-21v21v20.4H29.2
			V144l0,0v19h84.9v20.4h19.6v12.8h21v-12.8h18.8V163h85.3L258.8,143.6L258.8,143.6z M121.2,122.4c0,0.7-0.3,1-1,1H99
			c-4.9,0-6.3,1.5-6.3,6.5v6.7c0,5,1.4,6.5,6.3,6.5h21.1c0.7,0,1,0.3,1,1v4.7c0,0.7-0.3,1-1,1H98.8c-9.6,0-13.3-3.4-13.3-12.5v-8.2
			c0-9.1,3.7-12.5,13.3-12.5h21.4c0.7,0,1,0.3,1,1C121.2,117.6,121.2,122.4,121.2,122.4z M133.7,83.2h21v21h-21V83.2z M161.6,127.7
			c0,5.4-3,8.5-8.3,8.5h-17.9c-1.7,0-2.5,0.9-2.5,2.7v3.5c0,0.7,0.3,1,0.9,1h26.6c0.7,0,1,0.3,1,1v4.5c0,0.7-0.4,1-1,1h-30.3
			c-3.1,0-4.4-1.2-4.4-4v-7.3c0-5.4,2.9-8.5,8.3-8.5h17.9c1.7,0,2.5-0.9,2.5-2.7v-1.5c0-1.8-0.9-2.7-2.5-2.7H128
			c-0.7,0-1.1-0.3-1.1-1v-4.5c0-0.7,0.4-1,1.1-1h25.1c5.5,0,8.4,2.8,8.4,7.7v3.3H161.6z M202.5,142.2c0,4.9-2.9,7.7-8.4,7.7h-26.3
			c-0.7,0-1-0.3-1-1v-4.5c0-0.7,0.3-1,1-1H193c1.7,0,2.5-0.9,2.5-2.7v-1.9c0-1.8-0.8-2.7-2.5-2.7h-21.9c-3.1,0-4.4-1.2-4.4-4v-11.4
			c0-2.8,1.2-4,4.4-4h29.1c0.7,0,1,0.3,1,1v4.5c0,0.7-0.4,1-1,1h-25.5c-0.7,0-1,0.3-1,1v4.8c0,0.7,0.3,1,1,1h19.5
			c5.4,0,8.3,2.8,8.3,8.1L202.5,142.2L202.5,142.2z"/>
	</g>
	<g id="Layer_7_copy" class="st1">
		<rect x="101.8" y="49.2" class="st6" width="87.2" height="20"/>
		<g>
			<path class="st7" d="M104.2,98.6V115h18.4V98.6h12.2V115h18.4V98.6h12.4V115H184V98.6V83.1h15.9v-6.7l0,0V41.9l0,0v-7.1h-16V19.4
				h-79.8v15.4H88.4V51l0,0v16l0,0v16.2h15.8C104.2,83.2,104.2,98.6,104.2,98.6z M183.6,50.9v16H152v-16H183.6z M104.7,50.9h31.2v16
				h-31.2V50.9z"/>
			<polygon class="st7" points="221.5,83.1 221.5,125.6 183.8,125.6 183.8,141.3 104.7,141.3 104.7,125.6 67,125.6 67,83.1 
				44.2,83.1 44.2,125.6 44.2,127.5 44.2,141.8 104.2,141.8 104.2,157.3 44.2,157.3 44.2,171.6 44.2,173.5 44.2,200 67,200 
				67,173.5 104.7,173.5 104.7,157.4 183.8,157.4 183.8,173.5 221.5,173.5 221.5,200 244.3,200 244.3,173.5 244.3,171.6 
				244.3,157.3 183.9,157.3 183.9,141.8 244.3,141.8 244.3,127.5 244.3,125.6 244.3,83.1 			"/>
		</g>
		<circle class="st6" cx="119" cy="59.6" r="3.2"/>
		<circle class="st6" cx="166.6" cy="59.6" r="3.2"/>
	</g>
	<g class="st1">
		<rect x="134" y="467" class="st8" width="50.1" height="21.4"/>
		<g>
			<polygon class="st8" points="143.6,503.4 143.6,473.4 100.4,473.4 100.4,460.2 81.2,460.2 81.2,483 84.8,483 84.8,503.4 
				98,503.4 98,515.4 100.4,515.4 100.4,541.4 86.9,541.4 86.9,559.4 124.2,559.4 124.2,551 129,551 129,507.6 117.2,507.6 
				117.2,503.4 			"/>
			<rect x="128.7" y="488.4" class="st9" width="10.7" height="10.7"/>
			<rect x="96.1" y="477.5" class="st9" width="10.7" height="10.7"/>
			<rect x="104.7" y="514.9" class="st9" width="10.7" height="30.7"/>
		</g>
		<g>
			<polygon class="st10" points="169.1,503.4 169.1,473.4 212.3,473.4 212.3,460.2 231.5,460.2 231.5,483 227.9,483 227.9,503.4 
				214.7,503.4 214.7,515.4 212.3,515.4 212.3,541.4 227.7,541.4 227.7,559.4 190.5,559.4 190.5,551 184.7,551 184.7,507.6 
				195.5,507.6 195.5,503.4 			"/>
			<rect x="173.4" y="488.4" class="st9" width="10.7" height="10.7"/>
			<rect x="205.8" y="477.4" class="st9" width="10.7" height="10.7"/>
			<rect x="197.2" y="514.9" class="st9" width="10.7" height="30.7"/>
		</g>
		<g>
			<rect x="184.9" y="427.2" class="st8" width="58.8" height="25.4"/>
			<g>
				<rect x="226.8" y="406.7" class="st8" width="41.5" height="26.6"/>
				<g>
					<rect x="9.8" y="405.7" class="st8" width="27.5" height="26.6"/>
					<g>
						<g>
							<g>
								<polygon class="st8" points="28.9,396.4 21.9,396.4 21.9,459.2 26.9,459.2 26.9,506 37.3,506 37.3,520.6 45.7,520.6 
									45.7,524.8 67.3,524.8 67.3,513.7 48.1,513.7 48.1,494 41.3,494 41.3,459.2 55.5,459.2 55.5,401.2 99.1,401.2 99.1,342.4 
									28.9,343.4 								"/>
								<rect x="42.1" y="473.6" class="st8" width="20.8" height="6"/>
							</g>
							<rect x="44.7" y="383.1" width="26.8" height="9.6"/>
							<polygon class="st9" points="44.4,370.6 44.4,364.8 35.8,364.8 35.8,444.8 26.1,444.8 26.1,455.1 36.3,455.1 36.3,445 
								44.4,445 44.4,383.3 56.3,383.3 56.3,370.6 							"/>
							<rect x="30.9" y="455.2" class="st11" width="6.2" height="15.2"/>
						</g>
						<g>
							<g>
								<polygon class="st8" points="281.3,396.4 288.3,396.4 288.3,459.2 283.3,459.2 283.3,506 272.9,506 272.9,520.6 
									264.5,520.6 264.5,524.8 242.9,524.8 242.9,513.7 262.1,513.7 262.1,494 268.9,494 268.9,459.2 254.7,459.2 254.7,401.2 
									214.1,401.2 214.1,343.4 281.3,343.4 								"/>
								<rect x="247.3" y="473.6" class="st8" width="20.8" height="6"/>
							</g>
							<rect x="238.7" y="383.2" width="26.8" height="9.6"/>
							<polygon class="st9" points="265.9,370.6 265.9,364.8 274.4,364.8 274.4,444.8 284.2,444.8 284.2,455.1 273.9,455.1 
								273.9,445 265.9,445 265.9,383.3 253.9,383.3 253.9,370.6 							"/>
							<rect x="273.1" y="455.2" class="st11" width="6.2" height="15.2"/>
						</g>
						<polygon class="st10" points="245.6,367.3 65.9,367.3 65.9,398.6 76.8,398.6 76.8,420 92,420 92,444.2 114.4,444.2 
							114.4,466.2 197.2,466.2 197.2,444.2 219.6,444.2 219.6,420 234.7,420 234.7,398.6 245.6,398.6 						"/>
						<g>
							<polygon class="st8" points="216.5,375.6 233,375.6 233,360.2 249.2,360.2 249.2,375.6 233,375.6 233,391.1 216.5,391.1 
															"/>
						</g>
						<g>
							<polygon class="st8" points="98.9,331.7 82.4,331.7 82.4,316.3 66.2,316.3 66.2,331.7 82.4,331.7 82.4,347.5 98.9,347.5 
															"/>
							<polygon class="st12" points="65.9,296.7 49.4,296.7 49.4,281.2 33.2,281.2 33.2,296.7 49.4,296.7 49.4,312.5 65.9,312.5 
															"/>
							<polygon class="st8" points="93.5,375.6 77,375.6 77,360.2 60.8,360.2 60.8,375.6 77,375.6 77,391.1 93.5,391.1 							"/>
						</g>
						<rect x="117.9" y="389.8" class="st9" width="75.8" height="5.1"/>
						<rect x="118.8" y="410.1" class="st9" width="74" height="6.8"/>
						<rect x="124.2" y="432" class="st9" width="63.2" height="5.7"/>
						<rect x="111.7" y="400.7" width="88.2" height="9.7"/>
						<rect x="106.5" y="378.7" width="98.5" height="11.9"/>
						<rect x="115.8" y="422.1" width="80" height="8.5"/>
						<rect x="131.9" y="452.6" class="st9" width="47.9" height="5.7"/>
						<rect x="125.6" y="442.7" width="60.6" height="8.5"/>
						<rect x="108.8" y="371.4" class="st9" width="100" height="7.6"/>
						<rect x="180.9" y="371.4" class="st11" width="27.9" height="7.6"/>
					</g>
				</g>
			</g>
		</g>
		<rect x="198.4" y="271.5" class="st13" width="16.1" height="93.8"/>
		<polygon class="st13" points="120.4,363.4 100.7,363.4 100.8,283.7 120.5,283.7 		"/>
		<g>
			<polygon class="st10" points="349.5,415.8 349.5,408.4 318.4,408.4 318.4,421.2 324.8,421.2 324.8,432 330.9,432 330.9,446.7 
				368.1,446.7 368.1,415.8 			"/>
			<g>
				<polygon class="st10" points="325.6,401.2 291.1,401.2 291.1,436.4 310.8,436.4 310.8,444.6 318.6,444.6 318.6,436.4 
					325.6,436.4 				"/>
				<rect x="351.7" y="432.3" class="st9" width="12.2" height="10.3"/>
				<polygon class="st10" points="407.9,380.1 388.9,380.1 388.9,389.4 362.8,389.4 362.8,399.7 355.8,399.7 355.8,427.9 
					370.6,427.9 370.6,410.4 393.8,410.4 393.8,401.7 407.9,401.7 				"/>
				<rect x="374" y="404.5" class="st14" width="13" height="26.9"/>
				<rect x="369.8" y="395" width="9.9" height="7.2"/>
				<rect x="408.8" y="393" width="9.9" height="9.2"/>
				<rect x="310.8" y="405.3" class="st9" width="9.9" height="7.2"/>
				<polygon class="st8" points="405.3,329 419.8,329 419.5,370.2 404.9,370.2 				"/>
				<rect x="396.3" y="364.5" class="st8" width="30.4" height="11.8"/>
				<rect x="416.1" y="350" class="st8" width="16.2" height="11.8"/>
				<rect x="396.3" y="329" class="st8" width="41.4" height="18.4"/>
				<rect x="401.8" y="336.7" class="st9" width="9.9" height="7.2"/>
				<g>
					<polygon class="st8" points="344.8,237.4 325,237.4 325,249.2 316,249.2 316,266.3 328.6,266.3 328.6,257.1 344.8,257.1 					
						"/>
					<rect x="389.8" y="230.7" class="st8" width="28.8" height="35.5"/>
					<rect x="353.8" y="207.7" class="st8" width="61.2" height="19.7"/>
					<rect x="411.4" y="220.2" class="st8" width="19.8" height="23.2"/>
					<rect x="341.2" y="232.1" class="st8" width="25.2" height="13.1"/>
					<rect x="420.9" y="258.2" width="13.3" height="7.6"/>
					<rect x="431.9" y="234.8" width="13.3" height="7.6"/>
					<rect x="428.9" y="221.3" width="13.3" height="7.6"/>
					<rect x="364.7" y="197.5" width="10.6" height="9"/>
					<rect x="384.9" y="197.5" width="15.7" height="10.7"/>
					<rect x="396.4" y="217.7" class="st9" width="10.3" height="6.7"/>
					<rect x="396.2" y="233.7" class="st9" width="15.2" height="7"/>
					<rect x="404.2" y="233.7" class="st9" width="9.8" height="18.8"/>
					<rect x="398.6" y="315.2" class="st8" width="23.4" height="22.3"/>
					<polygon class="st8" points="397,287.2 397,276.7 402.4,276.7 402.4,255.6 380.8,255.6 380.8,267.5 426.4,267.5 426.4,291.1 
						395.4,291.1 395.4,321.3 415,321.3 415,287.2 					"/>
					<rect x="400.9" y="305" class="st9" width="9" height="10.7"/>
					<rect x="394.3" y="384.6" class="st9" width="9" height="12.6"/>
					<rect x="334.1" y="417.1" class="st9" width="9" height="10.7"/>
					<rect x="315.6" y="267.4" width="20.1" height="8.8"/>
					<rect x="331.2" y="268.5" width="10.8" height="6.1"/>
					<rect x="329.1" y="240.4" class="st9" width="7.7" height="5.8"/>
					<rect x="354.4" y="226.5" class="st9" width="7.7" height="5.8"/>
					<rect x="416.8" y="208.8" width="10.2" height="4.2"/>
				</g>
				<polygon class="st8" points="437.7,332.5 417.9,332.5 417.9,309.6 438.3,309.6 				"/>
				<rect x="437.7" y="347.4" class="st8" width="18.4" height="11.2"/>
				<rect x="423.5" y="250.8" class="st8" width="12.7" height="29.2"/>
			</g>
		</g>
		<g>
			<g>
				<rect x="95.1" y="240.2" class="st13" width="121.2" height="53.7"/>
				<polyline points="200,366.2 112,366.2 112,276.3 200,276.3 				"/>
				<polyline class="st8" points="80.8,202 64.4,202 64.4,185.5 48.2,185.5 48.2,202 64.4,202 64.4,217.8 80.6,217.8 80.6,223.5 
					80.6,242.3 80.6,249 123.5,249 123.5,260.5 189.3,260.5 189.3,248.2 230.9,248.2 230.9,242.3 230.9,222.8 230.9,217.8 
					247.2,217.8 247.2,202 263.4,202 263.4,186.6 247.2,186.6 247.2,202 231.1,202 231.1,123 219.7,123 219.7,51.3 202.5,51.3 
					202.5,34.1 181.4,34.1 181.4,17.6 128.9,17.6 128.9,34.1 107,34.1 107,51.3 92.5,51.3 92.5,123 80.8,123 80.8,202 				"/>
				<polygon class="st9" points="192.1,121.8 182.1,121.8 182.1,81.9 173.4,81.9 173.4,129.3 178.3,129.3 178.3,171.7 155.9,171.7 
					155.9,212 192.1,212 192.1,194.1 192.1,194.1 				"/>
				<polygon class="st9" points="131,65.7 112.3,65.7 111.6,65.7 102.3,65.7 102.3,139.5 112.3,139.5 112.3,112.7 131,112.7 				"/>
				<rect x="99.9" y="253" class="st15" width="12.3" height="12.3"/>
				<rect x="112.3" y="265.4" class="st16" width="36.7" height="13"/>
				<rect x="124.8" y="277.4" class="st16" width="12.3" height="18.3"/>
				<rect x="188.3" y="265.4" class="st15" width="11.6" height="12.3"/>
				<rect x="175.5" y="294.8" class="st17" width="12.3" height="23"/>
				<rect x="188.3" y="283.1" class="st17" width="11.6" height="12.1"/>
				<rect x="125.1" y="342.5" class="st18" width="23.6" height="12.3"/>
				<rect x="148.8" y="275.2" class="st18" width="10.9" height="16.3"/>
				<rect x="162.8" y="344.5" class="st18" width="10.9" height="12.3"/>
				<rect x="200.5" y="252.9" class="st18" width="9.3" height="12.3"/>
				<rect x="89.1" y="245.4" width="11.7" height="50.3"/>
				<rect x="210" y="245.4" width="11.7" height="50.3"/>
				<rect x="205" y="293.7" width="11.7" height="54.3"/>
				<rect x="92.8" y="293.7" width="11.7" height="54.3"/>
				<rect x="111.9" y="354.8" class="st18" width="73.7" height="13.3"/>
				<rect x="185.4" y="341.6" class="st17" width="14.3" height="34"/>
				<rect x="101.6" y="368.6" class="st17" width="10.2" height="23"/>
				<rect x="124.7" y="368.4" class="st17" width="12.7" height="31.5"/>
				<rect x="111.8" y="354.8" class="st19" width="13" height="13.1"/>
				<rect x="148.8" y="354.7" class="st20" width="13.8" height="13.3"/>
				<rect x="175.8" y="277.4" class="st18" width="12.3" height="12.3"/>
				<rect x="148.8" y="265.4" class="st18" width="39.3" height="12.8"/>
			</g>
			<rect x="176" y="384.2" class="st17" width="13.2" height="26.2"/>
		</g>
		<rect x="142.1" y="243.2" class="st9" width="43.2" height="12.1"/>
		<rect x="183.5" y="231.2" class="st9" width="43.2" height="12.1"/>
		<rect x="124.9" y="342.4" class="st17" width="12.3" height="13"/>
		<rect x="266.7" y="170.4" class="st8" width="16.2" height="15.4"/>
		<polygon class="st8" points="213.1,335.7 229.6,335.7 229.6,320.3 245.8,320.3 245.8,335.7 229.6,335.7 229.6,351.5 213.1,351.5 
					"/>
		<polygon class="st12" points="246.1,300.7 262.6,300.7 262.6,285.2 278.8,285.2 278.8,300.7 262.6,300.7 262.6,316.5 246.1,316.5 
					"/>
		<rect x="29.6" y="165.2" class="st8" width="17.4" height="17.4"/>
	</g>
</g>
<g id="Layer_2_00000062870536164378351070000012919678918090560696_">
	<g>
		<g>
			<g>
				<polygon class="st8" points="137.6,503.4 137.6,473.4 94.4,473.4 94.4,460.2 75.2,460.2 75.2,483 78.8,483 78.8,503.4 92,503.4 
					92,515.4 94.4,515.4 94.4,538.4 84.9,538.4 84.9,556.4 118.2,556.4 118.2,548 123,548 123,507.6 111.2,507.6 111.2,503.4 				
					"/>
				<rect x="122.7" y="488.4" class="st9" width="10.7" height="10.7"/>
				<rect x="90.1" y="477.5" class="st9" width="10.7" height="10.7"/>
				<rect x="98.7" y="514.9" class="st9" width="10.7" height="27.7"/>
			</g>
			<g>
				<polygon class="st10" points="175.1,503.4 175.1,473.4 218.3,473.4 218.3,460.2 237.5,460.2 237.5,483 233.9,483 233.9,503.4 
					220.7,503.4 220.7,515.4 218.3,515.4 218.3,538.4 229.7,538.4 229.7,556.4 196.5,556.4 196.5,548 190.7,548 190.7,507.6 
					201.5,507.6 201.5,503.4 				"/>
				<rect x="179.4" y="488.4" class="st9" width="10.7" height="10.7"/>
				<rect x="211.8" y="477.4" class="st9" width="10.7" height="10.7"/>
				<rect x="203.2" y="514.9" class="st9" width="10.7" height="27.7"/>
			</g>
		</g>
		<g>
			<rect x="184.9" y="427.2" class="st8" width="58.8" height="25.4"/>
			<g>
				<rect x="226.8" y="406.7" class="st8" width="41.5" height="26.6"/>
				<g>
					<rect x="9.8" y="416.7" class="st8" width="27.5" height="26.6"/>
					<g>
						<g>
							<g>
								<polygon class="st8" points="28.9,396.4 21.9,396.4 21.9,459.2 26.9,459.2 26.9,506 37.3,506 37.3,527.6 45.7,527.6 
									45.7,531.8 67.3,531.8 67.3,520.7 48.1,520.7 48.1,494 41.3,494 41.3,459.2 55.5,459.2 55.5,401.2 78.1,401.2 78.1,354.4 
									28.9,354.4 								"/>
								<rect x="42.1" y="473.6" class="st8" width="16.8" height="6"/>
							</g>
							<rect x="44.7" y="383.1" width="26.8" height="9.6"/>
							<polygon class="st9" points="44.4,370.6 44.4,364.8 35.8,364.8 35.8,444.8 26.1,444.8 26.1,455.1 36.3,455.1 36.3,445 
								44.4,445 44.4,383.3 56.3,383.3 56.3,370.6 							"/>
							<rect x="30.9" y="455.2" class="st11" width="6.2" height="15.2"/>
						</g>
						<g>
							<g>
								<polygon class="st8" points="281.3,396.4 288.3,396.4 288.3,459.2 283.3,459.2 283.3,506 272.9,506 272.9,527.6 
									264.5,527.6 264.5,531.8 242.9,531.8 242.9,520.7 262.1,520.7 262.1,494 268.9,494 268.9,459.2 254.7,459.2 254.7,401.2 
									232.1,401.2 232.1,354.4 281.3,354.4 								"/>
								<rect x="251.3" y="473.6" class="st8" width="16.8" height="6"/>
							</g>
							<rect x="238.7" y="383.2" width="26.8" height="9.6"/>
							<polygon class="st9" points="265.9,370.6 265.9,364.8 274.4,364.8 274.4,444.8 284.2,444.8 284.2,455.1 273.9,455.1 
								273.9,445 265.9,445 265.9,383.3 253.9,383.3 253.9,370.6 							"/>
							<rect x="273.1" y="455.2" class="st11" width="6.2" height="15.2"/>
						</g>
						<polygon class="st10" points="245.6,367.3 65.9,367.3 65.9,398.6 76.8,398.6 76.8,420 92,420 92,444.2 114.4,444.2 
							114.4,466.2 197.2,466.2 197.2,444.2 219.6,444.2 219.6,420 234.7,420 234.7,398.6 245.6,398.6 						"/>
						<g>
							<polygon class="st8" points="211.1,351.7 227.6,351.7 227.6,336.3 243.8,336.3 243.8,351.7 227.6,351.7 227.6,367.5 
								211.1,367.5 							"/>
							<polygon class="st12" points="244.1,316.7 260.6,316.7 260.6,301.2 276.8,301.2 276.8,316.7 260.6,316.7 260.6,332.5 
								244.1,332.5 							"/>
							<polygon class="st8" points="216.5,375.6 233,375.6 233,360.2 249.2,360.2 249.2,375.6 233,375.6 233,391.1 216.5,391.1 
															"/>
						</g>
						<g>
							<polygon class="st8" points="98.9,351.7 82.4,351.7 82.4,336.3 66.2,336.3 66.2,351.7 82.4,351.7 82.4,367.5 98.9,367.5 
															"/>
							<polygon class="st12" points="65.9,316.7 49.4,316.7 49.4,301.2 33.2,301.2 33.2,316.7 49.4,316.7 49.4,332.5 65.9,332.5 
															"/>
							<polygon class="st8" points="93.5,375.6 77,375.6 77,360.2 60.8,360.2 60.8,375.6 77,375.6 77,391.1 93.5,391.1 							"/>
						</g>
						<rect x="117.9" y="395.8" class="st9" width="75.8" height="5.1"/>
						<rect x="118.8" y="419.1" class="st9" width="74" height="6.8"/>
						<rect x="124.2" y="438" class="st9" width="63.2" height="8.7"/>
						<rect x="111.7" y="409.7" width="88.2" height="9.7"/>
						<rect x="106.5" y="384.7" width="98.5" height="11.9"/>
						<rect x="115.8" y="431.1" width="80" height="8.5"/>
						<rect x="108.8" y="371.4" class="st9" width="100" height="7.6"/>
						<rect x="180.9" y="371.4" class="st11" width="27.9" height="7.6"/>
					</g>
				</g>
			</g>
		</g>
		<g>
			<polygon class="st10" points="349.5,415.8 349.5,408.4 313.4,408.4 313.4,421.2 319.8,421.2 319.8,432 325.9,432 325.9,446.7 
				368.1,446.7 368.1,415.8 			"/>
			<g>
				<polygon class="st10" points="320.6,401.2 291.1,401.2 291.1,436.4 305.8,436.4 305.8,444.6 313.6,444.6 313.6,436.4 
					320.6,436.4 				"/>
				<rect x="351.7" y="432.3" class="st9" width="12.2" height="10.3"/>
				<polygon class="st10" points="407.9,380.1 388.9,380.1 388.9,389.4 362.8,389.4 362.8,399.7 355.8,399.7 355.8,427.9 
					370.6,427.9 370.6,410.4 393.8,410.4 393.8,401.7 407.9,401.7 				"/>
				<rect x="374" y="404.5" class="st14" width="13" height="26.9"/>
				<rect x="369.8" y="395" width="9.9" height="7.2"/>
				<rect x="408.8" y="393" width="9.9" height="9.2"/>
				<rect x="305.8" y="405.3" class="st9" width="9.9" height="7.2"/>
				<polygon class="st8" points="405.3,329 419.8,329 419.5,370.2 404.9,370.2 				"/>
				<rect x="396.3" y="364.5" class="st8" width="30.4" height="11.8"/>
				<rect x="416.1" y="350" class="st8" width="16.2" height="11.8"/>
				<rect x="396.3" y="329" class="st8" width="41.4" height="18.4"/>
				<rect x="401.8" y="336.7" class="st9" width="9.9" height="7.2"/>
				<g>
					<polygon class="st8" points="358.8,238.4 339,238.4 339,250.2 330,250.2 330,267.3 342.6,267.3 342.6,258.1 358.8,258.1 					
						"/>
					<rect x="403.8" y="241.7" class="st8" width="28.8" height="35.5"/>
					<rect x="367.8" y="218.7" class="st8" width="61.2" height="19.7"/>
					<rect x="425.4" y="231.2" class="st8" width="19.8" height="23.2"/>
					<rect x="355.2" y="233.1" class="st8" width="25.2" height="13.1"/>
					<rect x="434.9" y="269.2" width="13.3" height="7.6"/>
					<rect x="445.9" y="245.8" width="13.3" height="7.6"/>
					<rect x="442.9" y="232.3" width="13.3" height="7.6"/>
					<rect x="378.7" y="208.5" width="10.6" height="9"/>
					<rect x="398.9" y="208.5" width="15.7" height="10.7"/>
					<rect x="410.4" y="228.7" class="st9" width="10.3" height="6.7"/>
					<rect x="410.2" y="244.7" class="st9" width="15.2" height="7"/>
					<rect x="418.2" y="244.7" class="st9" width="9.8" height="18.8"/>
					<rect x="398.6" y="315.2" class="st8" width="23.4" height="22.3"/>
					<polygon class="st8" points="411,298.2 411,287.7 416.4,287.7 416.4,266.6 394.8,266.6 394.8,278.5 440.4,278.5 440.4,302.1 
						409.4,302.1 409.4,332.3 429,332.3 429,298.2 					"/>
					<rect x="414.7" y="306.4" class="st9" width="9" height="10.7"/>
					<rect x="394.3" y="384.6" class="st9" width="9" height="12.6"/>
					<rect x="334.1" y="417.1" class="st9" width="9" height="10.7"/>
					<rect x="333.6" y="268.4" width="20.1" height="8.8"/>
					<rect x="349.2" y="269.5" width="10.8" height="6.1"/>
					<rect x="343.1" y="241.4" class="st9" width="7.7" height="5.8"/>
					<rect x="368.4" y="237.5" class="st9" width="7.7" height="5.8"/>
					<rect x="430.8" y="219.8" width="10.2" height="4.2"/>
				</g>
				<rect x="436.1" y="318.7" class="st8" width="19.8" height="13.8"/>
				<rect x="437.7" y="347.4" class="st8" width="18.4" height="11.2"/>
				<rect x="437.5" y="261.8" class="st8" width="12.7" height="29.2"/>
			</g>
		</g>
	</g>
</g>
</svg>
